<svg xmlns="http://www.w3.org/2000/svg" viewBox="0 0 237.55 67.2"><defs><style>.cls-1{fill:#3c6b9c;}.cls-2{fill:#4e89c3;}.cls-3{fill:none;}.cls-3,.cls-4{stroke:#fff;stroke-miterlimit:10;stroke-width:0.85px;}.cls-4{fill:#386080;}.cls-5,.cls-6{fill:#7d7e7f;}.cls-5{opacity:0.55;}.cls-7{fill:#525352;}.cls-8{fill:#fff;}</style></defs><title>logo</title><g id="Camada_2" data-name="Camada 2"><g id="Camada_1-2" data-name="Camada 1"><g id="_Grupo_" data-name="&lt;Grupo&gt;"><g id="_Grupo_2" data-name="&lt;Grupo&gt;"><g id="_Grupo_3" data-name="&lt;Grupo&gt;"><g id="_Grupo_4" data-name="&lt;Grupo&gt;"><path class="cls-1" d="M16.35,27.18c-.71-1.8-1.39-4.07-.84-6a1.45,1.45,0,0,1-.15-.31c-.87-2.65.43-6.76,3-8.11a4.88,4.88,0,0,0-4.78-6.63A4.88,4.88,0,0,0,5.93,1l-.09.07A6.3,6.3,0,0,0,4,3.46a21,21,0,0,0,2.21,22l11.38,4.44A21.88,21.88,0,0,1,16.35,27.18Z"/></g><circle id="_Caminho_" data-name="&lt;Caminho&gt;" class="cls-1" cx="41.51" cy="33.66" r="8.41"/><circle id="_Caminho_2" data-name="&lt;Caminho&gt;" class="cls-1" cx="20.54" cy="43.84" r="6.19"/><path id="_Caminho_3" data-name="&lt;Caminho&gt;" class="cls-2" d="M29.8,48.18a11.6,11.6,0,0,1,3.87-8.66,8,8,0,0,0-13.13,6.23,8,8,0,0,0,6.1,7.81c1,.25,2.78.6,3.53-.3.56-.67.26-1.32,0-2A10.21,10.21,0,0,1,29.8,48.18Z"/><path id="_Caminho_4" data-name="&lt;Caminho&gt;" class="cls-2" d="M54.5,34.25a27.66,27.66,0,0,1-.32,9.44,27.17,27.17,0,0,1-.73,2.77,5.22,5.22,0,0,1-1,2.25c-1.77,1.59-3.94.24-5.26-1.2a8,8,0,0,1,5.88-13.39A7.88,7.88,0,0,1,54.5,34.25Z"/><path id="_Caminho_5" data-name="&lt;Caminho&gt;" class="cls-3" d="M26.59,6a2.45,2.45,0,0,1,3.48-1.66,3.07,3.07,0,0,1,1.35,2.69,4.3,4.3,0,0,1-1.87,3.47,2.63,2.63,0,0,1,2.86,1.34,3.71,3.71,0,0,1,.39,1.61c.07,1.73-.91,3.66-2.61,4A5.75,5.75,0,0,1,31.72,21a4.06,4.06,0,0,1-1.6,3.44,3.15,3.15,0,0,1-3.69,0"/><path id="_Caminho_composto_" data-name="&lt;Caminho composto&gt;" class="cls-2" d="M37.13,12.48a5.12,5.12,0,0,1-3.07,4.94,5.07,5.07,0,0,1-3.68,9,5.13,5.13,0,0,1-4,8.19c-.28,0-.28-.42,0-.43a4.7,4.7,0,0,0,3.37-7.88A.22.22,0,0,1,30,26a4.69,4.69,0,0,0,3.59-8.42.22.22,0,0,1,.05-.39,4.71,4.71,0,0,0,1.16-8.27.22.22,0,0,1,0-.34A4.72,4.72,0,0,0,33.91.7c-3-1.49-6.39.88-8.65,2.74a21.13,21.13,0,0,0-7.7,16.35.22.22,0,0,1-.43,0,21.91,21.91,0,0,1,1.4-7.63A27.39,27.39,0,0,0,0,38.07a27.69,27.69,0,0,0,.16,3A27.29,27.29,0,0,0,6.84,56.17a27.56,27.56,0,0,0,4,3.74c.81.61,2.6,1.83,3.06,1.65a1.71,1.71,0,0,0,.71-.64,1.25,1.25,0,0,0,.08-.61,5.37,5.37,0,0,0-.7-1.56c-.3-.61-.66-1.16-.91-1.8A10.79,10.79,0,0,1,30.25,44.89a11.63,11.63,0,0,1,22.8,2.72A27.4,27.4,0,0,0,37.13,12.48ZM12.6,37.18a1.53,1.53,0,1,1,1.53-1.53A1.53,1.53,0,0,1,12.6,37.18Z"/><path id="_Caminho_6" data-name="&lt;Caminho&gt;" class="cls-4" d="M21.78,28.06"/><path id="_Caminho_7" data-name="&lt;Caminho&gt;" class="cls-4" d="M25.08,19.51"/></g><ellipse id="_Caminho_8" data-name="&lt;Caminho&gt;" class="cls-5" cx="33.34" cy="66.08" rx="13.43" ry="1.12"/><g id="_Grupo_5" data-name="&lt;Grupo&gt;"><path id="_Caminho_composto_2" data-name="&lt;Caminho composto&gt;" class="cls-6" d="M170.09,58.92a.66.66,0,0,1,.52-1,.64.64,0,0,1,.56.3,1.9,1.9,0,0,0,.23.29,2.5,2.5,0,0,0,1.78.93,2.55,2.55,0,0,0,1.91-.62,2.61,2.61,0,0,0-1.48-4.61,3.29,3.29,0,0,1,.28-6.56,3.27,3.27,0,0,1,2.49,1.17,3.51,3.51,0,0,1,.32.44.65.65,0,0,1,.1.35.66.66,0,0,1-.66.65.54.54,0,0,1-.46-.2l-.3-.4a2,2,0,1,0-1.66,3.23,3.83,3.83,0,0,1,2.69,1.38,3.75,3.75,0,0,1,.93,2.49c0,.13,0,.25,0,.38a3.94,3.94,0,0,1-3.88,3.61,4,4,0,0,1-3-1.39A3.11,3.11,0,0,1,170.09,58.92Z"/><path id="_Caminho_composto_3" data-name="&lt;Caminho composto&gt;" class="cls-6" d="M183.22,59.4a.66.66,0,0,1,0,1.31q-3.28,0-3.28-3.28V52.85h-.65a.66.66,0,0,1,0-1.31h.65V48.27a.66.66,0,0,1,1.31,0v3.28h1.32a.66.66,0,0,1,0,1.31h-1.32v4.59A1.74,1.74,0,0,0,183.22,59.4Z"/><path id="_Caminho_composto_4" data-name="&lt;Caminho composto&gt;" class="cls-6" d="M193.7,60.06a.66.66,0,0,1-1.31,0v-.53a4.26,4.26,0,0,1-7.21-3.07V52.2a.66.66,0,0,1,1.31,0v4.26a2.95,2.95,0,0,0,5.9,0V52.2a.66.66,0,0,1,1.31,0Z"/><path id="_Caminho_composto_5" data-name="&lt;Caminho composto&gt;" class="cls-6" d="M202.87,48.25a.65.65,0,0,1,1.31,0v7.88a4.58,4.58,0,1,1-1.34-3.24l0,0Zm0,7.88a3.27,3.27,0,1,0-1,2.32A3.16,3.16,0,0,0,202.87,56.13Z"/><path id="_Caminho_composto_6" data-name="&lt;Caminho composto&gt;" class="cls-6" d="M207.62,49.58a.82.82,0,1,1-.24-.58A.79.79,0,0,1,207.62,49.58Zm-1.47,2.62a.65.65,0,0,1,1.31,0v7.86a.65.65,0,0,1-1.31,0Z"/><path id="_Caminho_composto_7" data-name="&lt;Caminho composto&gt;" class="cls-6" d="M218.6,56.13a4.58,4.58,0,1,1-1.34-3.24A4.42,4.42,0,0,1,218.6,56.13ZM214,52.85a3.27,3.27,0,1,0,2.32,1A3.16,3.16,0,0,0,214,52.85Z"/><path id="_Caminho_composto_8" data-name="&lt;Caminho composto&gt;" class="cls-6" d="M221.53,56.13a2.89,2.89,0,0,1-1-.58,1.87,1.87,0,0,1-.58-1.38,1.94,1.94,0,0,1,.61-1.42,4.12,4.12,0,0,1,3.08-1.2,4.55,4.55,0,0,1,3.52,1.65.54.54,0,0,1,.12.38.66.66,0,0,1-.65.65.57.57,0,0,1-.43-.17l-.24-.25a3.16,3.16,0,0,0-2.32-1,2.85,2.85,0,0,0-2.17.85.86.86,0,0,0-.2.57.56.56,0,0,0,.4.52l4,1.33a2.9,2.9,0,0,1,1,.58,1.87,1.87,0,0,1,.58,1.38,1.94,1.94,0,0,1-.61,1.42,4.12,4.12,0,0,1-3.08,1.2,4.54,4.54,0,0,1-3.52-1.65.65.65,0,0,1-.12-.38.66.66,0,0,1,.65-.65.57.57,0,0,1,.43.17l.24.25a3.16,3.16,0,0,0,2.32,1,2.86,2.86,0,0,0,2.17-.85A.86.86,0,0,0,226,58a.56.56,0,0,0-.4-.52Z"/></g><g id="_Grupo_6" data-name="&lt;Grupo&gt;"><g id="_Grupo_7" data-name="&lt;Grupo&gt;"><path id="_Caminho_composto_9" data-name="&lt;Caminho composto&gt;" class="cls-7" d="M220.18,31.61A2.37,2.37,0,0,1,217.77,34h-16.6a7.33,7.33,0,0,0,6.93,5,9.44,9.44,0,0,0,5.39-1.59,2.3,2.3,0,0,1,3.18,1.11,2.51,2.51,0,0,1-1.15,3.18,11.78,11.78,0,0,1-7.41,2.07,12.08,12.08,0,1,1,0-24.16A11.85,11.85,0,0,1,220.18,31.61Zm-19-2.41h13.91a7,7,0,0,0-7-4.91A7.36,7.36,0,0,0,201.17,29.21Z"/><circle id="_Caminho_9" data-name="&lt;Caminho&gt;" class="cls-8" cx="208.12" cy="31.51" r="7.37"/><path id="_Caminho_composto_10" data-name="&lt;Caminho composto&gt;" class="cls-7" d="M63.17,41.33V12.27a2.38,2.38,0,0,1,4.76,0V41.33a2.38,2.38,0,1,1-4.76,0Z"/><path id="_Caminho_composto_11" data-name="&lt;Caminho composto&gt;" class="cls-7" d="M131.74,31.81v9.43a2.33,2.33,0,0,1-2.41,2.41A2.53,2.53,0,0,1,127,41.24a10.49,10.49,0,0,1-7.12,2.41,11.82,11.82,0,0,1-12.18-11.84A12.1,12.1,0,0,1,119.9,19.63,11.82,11.82,0,0,1,131.74,31.81Zm-4.72,0a7.27,7.27,0,0,0-7.12-7.46,7.56,7.56,0,0,0-7.46,7.46,7.27,7.27,0,0,0,7.46,7.12A7,7,0,0,0,127,31.81Z"/><path id="_Caminho_composto_12" data-name="&lt;Caminho composto&gt;" class="cls-7" d="M161.52,41.33V21.94a2.38,2.38,0,0,1,4.76,0V41.33a2.38,2.38,0,1,1-4.76,0Z"/><path id="_Caminho_composto_13" data-name="&lt;Caminho composto&gt;" class="cls-7" d="M193.19,31.61v9.67a2.49,2.49,0,0,1-2.55,2.38,2.23,2.23,0,0,1-2.21-2.38V31.61a7.31,7.31,0,0,0-14.63,0v9.67a2.38,2.38,0,1,1-4.76,0V31.61a12.08,12.08,0,1,1,24.16,0Z"/><path id="_Caminho_composto_14" data-name="&lt;Caminho composto&gt;" class="cls-7" d="M237.55,21.94a2.41,2.41,0,0,1-2.41,2.41,7.31,7.31,0,0,0-7.31,7.31v9.67a2.38,2.38,0,1,1-4.76,0V31.66a12.09,12.09,0,0,1,12.08-12.08A2.37,2.37,0,0,1,237.55,21.94Z"/><path id="_Caminho_composto_15" data-name="&lt;Caminho composto&gt;" class="cls-7" d="M206,29.21h12.1c.81,0,1.47,1.06,1.47,2.41S218.91,34,218.1,34H206c-.84,0-1.5-1.06-1.5-2.36S205.16,29.21,206,29.21Z"/></g><g id="_Grupo_8" data-name="&lt;Grupo&gt;"><path id="_Caminho_10" data-name="&lt;Caminho&gt;" class="cls-7" d="M122.33,38.54l.81,1.92,1,2.49a12.86,12.86,0,0,1-12.61-2.46l3.13-3.63A7.77,7.77,0,0,0,122.33,38.54Z"/><ellipse id="_Caminho_11" data-name="&lt;Caminho&gt;" class="cls-7" cx="123.21" cy="40.75" rx="2.39" ry="2.38"/></g><g id="_Grupo_9" data-name="&lt;Grupo&gt;"><path id="_Caminho_12" data-name="&lt;Caminho&gt;" class="cls-2" d="M144.89,38.69l-.61,2-.76,2.61a12.61,12.61,0,0,0,12.25-3.71l-3.45-3.36A7.64,7.64,0,0,1,144.89,38.69Z"/><ellipse id="_Caminho_13" data-name="&lt;Caminho&gt;" class="cls-2" cx="144.23" cy="41.01" rx="2.38" ry="2.41" transform="translate(-3.31 14.24) rotate(-5.59)"/></g><path id="_Caminho_14" data-name="&lt;Caminho&gt;" class="cls-8" d="M127,41.24V32.07l-5.24,4.78,1,1.52a2.5,2.5,0,0,1,2.66,1.43s.94,1.61-1,3l2.1.17Z"/><path id="_Caminho_composto_16" data-name="&lt;Caminho composto&gt;" class="cls-7" d="M104.8,29.4a.43.43,0,0,1,0,.24V41.33a2.41,2.41,0,0,1-2.41,2.41,2.37,2.37,0,0,1-2.36-2.41V29.21a4.91,4.91,0,0,0-9.82,0l-.12,6.07a2.29,2.29,0,0,1-4.57.11l-.07-6.18a4.88,4.88,0,0,0-9.77,0V41.33a2.38,2.38,0,1,1-4.76,0V29.21a9.66,9.66,0,0,1,9.67-9.62A9.52,9.52,0,0,1,87.9,22.9a9.52,9.52,0,0,1,7.27-3.32,9.66,9.66,0,0,1,9.67,9.62C104.84,29.3,104.84,29.35,104.8,29.4Z"/></g><path id="_Caminho_composto_17" data-name="&lt;Caminho composto&gt;" class="cls-2" d="M134.63,31.61a12.15,12.15,0,1,1,4.76,9.58v2.65a7.32,7.32,0,0,0,13.91,3,2.39,2.39,0,0,1,3.18-1.06A2.35,2.35,0,0,1,157.58,49a12.09,12.09,0,0,1-23-5.29Zm19.39,0a7.31,7.31,0,1,0-7.31,7.31A7.34,7.34,0,0,0,154,31.61Z"/><path id="_Caminho_15" data-name="&lt;Caminho&gt;" class="cls-8" d="M142.51,42.89s-1.17-.47-1.06-2.49c0,0,.31-2.44,2.44-2V36.57l-2.29-1.31-2.2-3.93V42.21a10.49,10.49,0,0,0,1.2,1.38A13.49,13.49,0,0,0,142.51,42.89Z"/></g></g></g></g></svg>